<svg width="19" height="22" viewBox="0 0 19 22" fill="none" xmlns="http://www.w3.org/2000/svg">
<path d="M9.61536 12.4299C10.0093 12.4299 10.3994 12.3492 10.7634 12.1924C11.1274 12.0357 11.4581 11.8058 11.7367 11.5161C12.0153 11.2264 12.2362 10.8824 12.387 10.5039C12.5378 10.1254 12.6154 9.71967 12.6154 9.30994C12.6154 8.90022 12.5378 8.49451 12.387 8.11597C12.2362 7.73743 12.0153 7.39349 11.7367 7.10377C11.4581 6.81405 11.1274 6.58423 10.7634 6.42744C10.3994 6.27064 10.0093 6.18994 9.61536 6.18994C8.81971 6.18994 8.05665 6.51865 7.49404 7.10377C6.93143 7.68888 6.61536 8.48247 6.61536 9.30994C6.61536 10.1374 6.93143 10.931 7.49404 11.5161C8.05665 12.1012 8.81971 12.4299 9.61536 12.4299Z" stroke="black" stroke-width="1.5"/>
<path d="M1.5577 7.49C3.45193 -1.17 15.7885 -1.16 17.6731 7.5C18.7789 12.58 15.7404 16.88 13.0769 19.54C12.1462 20.4735 10.9036 20.9952 9.61058 20.9952C8.31755 20.9952 7.07494 20.4735 6.14424 19.54C3.49039 16.88 0.45193 12.57 1.5577 7.49Z" stroke="black" stroke-width="1.5"/>
</svg>
