<svg width="22" height="22" viewBox="0 0 22 22" fill="none" xmlns="http://www.w3.org/2000/svg">
<path d="M1.4231 11.8799V10.1199C1.4231 9.07994 2.2404 8.21994 3.25002 8.21994C4.9904 8.21994 5.70194 6.93994 4.82694 5.36994C4.32694 4.46994 4.62502 3.29994 5.50002 2.77994L7.16348 1.78994C7.9231 1.31994 8.90387 1.59994 9.35579 2.38994L9.46156 2.57994C10.3269 4.14994 11.75 4.14994 12.625 2.57994L12.7308 2.38994C13.1827 1.59994 14.1635 1.31994 14.9231 1.78994L16.5866 2.77994C17.4616 3.29994 17.7596 4.46994 17.2596 5.36994C16.3846 6.93994 17.0962 8.21994 18.8366 8.21994C19.8366 8.21994 20.6635 9.06994 20.6635 10.1199V11.8799C20.6635 12.9199 19.8462 13.7799 18.8366 13.7799C17.0962 13.7799 16.3846 15.0599 17.2596 16.6299C17.7596 17.5399 17.4616 18.6999 16.5866 19.2199L14.9231 20.2099C14.1635 20.6799 13.1827 20.3999 12.7308 19.6099L12.625 19.4199C11.7596 17.8499 10.3366 17.8499 9.46156 19.4199L9.35579 19.6099C8.90387 20.3999 7.9231 20.6799 7.16348 20.2099L5.50002 19.2199C5.08088 18.969 4.77462 18.5553 4.64843 18.0697C4.52224 17.5841 4.58644 17.0663 4.82694 16.6299C5.70194 15.0599 4.9904 13.7799 3.25002 13.7799C2.2404 13.7799 1.4231 12.9199 1.4231 11.8799Z" stroke="black" stroke-width="1.5" stroke-miterlimit="10" stroke-linecap="round" stroke-linejoin="round"/>
<path d="M11.0384 14C11.8035 14 12.5372 13.6839 13.0782 13.1213C13.6191 12.5587 13.923 11.7956 13.923 11C13.923 10.2044 13.6191 9.44129 13.0782 8.87868C12.5372 8.31607 11.8035 8 11.0384 8C10.2734 8 9.53966 8.31607 8.99869 8.87868C8.45772 9.44129 8.15381 10.2044 8.15381 11C8.15381 11.7956 8.45772 12.5587 8.99869 13.1213C9.53966 13.6839 10.2734 14 11.0384 14Z" stroke="black" stroke-width="1.5" stroke-miterlimit="10" stroke-linecap="round" stroke-linejoin="round"/>
</svg>
